<?xml version="1.0" encoding="UTF-8" standalone="no"?>
<!-- Created with Inkscape (http://www.inkscape.org/) -->

<svg
   xmlns:dc="http://purl.org/dc/elements/1.1/"
   xmlns:cc="http://creativecommons.org/ns#"
   xmlns:rdf="http://www.w3.org/1999/02/22-rdf-syntax-ns#"
   xmlns:svg="http://www.w3.org/2000/svg"
   xmlns="http://www.w3.org/2000/svg"
   xmlns:sodipodi="http://sodipodi.sourceforge.net/DTD/sodipodi-0.dtd"
   xmlns:inkscape="http://www.inkscape.org/namespaces/inkscape"
   width="161.15936mm"
   height="196.08401mm"
   viewBox="0 0 161.15936 196.08401"
   version="1.1"
   id="svg821"
   sodipodi:docname="map.svg"
   inkscape:version="0.92+devel (b071ae7561, 2017-11-25, custom)">
  <defs
     id="defs815" />
  <sodipodi:namedview
     id="base"
     pagecolor="#ffffff"
     bordercolor="#666666"
     borderopacity="1.0"
     inkscape:pageopacity="0.0"
     inkscape:pageshadow="2"
     inkscape:zoom="0.98994949"
     inkscape:cx="398.21161"
     inkscape:cy="244.85281"
     inkscape:document-units="mm"
     inkscape:current-layer="layer1"
     inkscape:document-rotation="0"
     showgrid="false"
     fit-margin-top="0"
     fit-margin-left="0"
     fit-margin-right="0"
     fit-margin-bottom="0"
     inkscape:window-width="3840"
     inkscape:window-height="2081"
     inkscape:window-x="-9"
     inkscape:window-y="-9"
     inkscape:window-maximized="1" />
  <metadata
     id="metadata818">
    <rdf:RDF>
      <cc:Work
         rdf:about="">
        <dc:format>image/svg+xml</dc:format>
        <dc:type
           rdf:resource="http://purl.org/dc/dcmitype/StillImage" />
        <dc:title></dc:title>
      </cc:Work>
    </rdf:RDF>
  </metadata>
  <g
     inkscape:label="Layer 1"
     inkscape:groupmode="layer"
     id="layer1"
     transform="translate(0,-100.91599)">
    <path
       id="path3045-9"
       style="fill:#777777;stroke:#777777;stroke-width:2.865;stroke-opacity:1;stroke-miterlimit:4;stroke-dasharray:none;stroke-linecap:round;stroke-linejoin:round;fill-opacity:1"
       d="m 93.343773,101.04892 c -0.153447,0.0159 -0.251349,0.18265 -0.264578,0.68007 1.582209,1.27264 -0.40735,0.82002 -1.28312,0.93379 -0.78317,-0.045 -0.88646,-0.73294 -2.09032,-0.43925 -1.31762,1.37319 -2.825602,1.62723 -4.548042,1.36529 -0.346599,-1.89971 -0.632579,1.03996 -1.688269,-0.0501 -0.473599,0.91281 -1.055309,0.13744 -1.47071,0.91002 -0.0265,0.0423 -1.88681,-0.51031 -2.389519,0.86816 -0.227541,1.11919 -1.267171,1.70124 -0.47077,0.15607 1.979078,-1.34144 -2.378832,-3.35789 -1.75442,-1.33119 -1.018641,0.63765 -1.26995,2.13288 -2.20658,2.38952 0.592669,-1.19856 2.140709,-2.69875 0.233061,-3.175 -0.613831,-1.37054 -0.113631,-0.0451 -0.843881,0.24857 -0.232831,-1.18005 -1.577282,-1.1455 -2.498032,-1.57148 -0.23019,0.54504 0.005,1.23016 -0.288359,1.76991 -1.18269,0.80963 -1.439039,2.29144 0.0982,2.52957 1.098021,1.05568 -1.137901,-0.23034 -0.98444,0.91002 -0.264581,0.13758 1.796711,1.233 0.124539,0.63768 -0.8837,-0.99483 -1.294,1.92098 -0.719849,1.82573 -0.656169,1.016 2.600751,1.79661 2.275311,1.80454 0.187859,0.86784 -0.203351,0.05 -0.941541,0.0315 -0.949849,-0.85195 -1.296911,0.28561 -2.185911,0.0501 -1.03188,0.97102 -2.00782,-0.55827 -2.529049,0.13229 0.767289,0.81492 0.94465,2.11686 2.069129,2.37351 -0.526518,0.49477 -0.0798,0.54235 -0.466129,0.88366 0.96838,1.23296 -0.759159,0.78331 -1.264521,1.07435 -0.46037,-1.40493 -1.913038,-0.54522 -0.767389,0.40463 0.63764,0.70644 1.81235,1.84962 3.066481,2.3735 -0.637651,0.91017 0.407638,1.34677 1.249018,2.02675 0.642932,1.65364 0,0.20869 -0.79375,-0.20671 -0.658818,-1.11654 -1.973799,-0.31183 -2.38125,-1.33842 -1.584859,-0.10583 0.0554,0.84398 0.711581,1.41284 1.804461,0.87577 -0.39923,0.7115 -0.894,-0.29921 -1.500191,-1.44992 -0.899869,2.00279 -2.413289,0.48938 -0.0132,-1.15623 -1.364922,-1.87822 -1.44694,-0.38861 0.343958,0.64029 1.348999,2.06617 0.61082,2.34663 -0.169341,0.35983 -0.438992,0.76208 -0.825281,-0.37827 0.008,-1.5928 -0.738449,-1.57186 -1.99523,-1.42369 0.216961,1.09802 -0.47606,3.44771 1.38131,3.36569 1.172109,1.35731 -0.80962,0.0818 -0.99218,0.99994 -1.105961,1.21708 0.780521,1.29664 0.79375,2.50578 0.640289,0.43657 0.53979,0.93946 1.9606,0.71986 1.94469,0.7567 -1.553139,0.0818 -0.902269,0.86764 -0.61119,0.11642 -0.783082,-1.15641 -1.37046,-0.78599 -1.23295,-2.02936 -1.82812,1.07174 -1.505331,2.43964 0.98425,0.0397 0.671849,0.85967 0.669211,1.42058 -0.320151,1.77271 1.931458,0.51602 2.57969,-0.31212 -0.804341,1.72773 1.442119,0.8916 2.066539,-0.30696 0.473601,0.635 -1.701459,1.96892 -2.770381,1.87896 -1.91294,1.24618 0.468212,1.71952 1.613861,1.44435 0.452429,0.54504 2.029311,1.21982 1.87585,1.40767 -1.251479,-0.0741 -1.735481,-1.76198 -3.05046,-0.71159 0.100539,0.8308 -0.169101,1.32288 -0.692981,2.20659 0.775232,0.38629 1.86259,0.6245 2.230361,1.34152 1.767411,-0.508 0.35152,0.48414 -0.579811,0.0899 -0.902229,-1.72508 -3.939418,0.37556 -2.478918,1.50533 1.367888,-0.77522 0.52369,1.47656 1.99213,1.05059 1.910289,-0.65882 0.0529,0.45764 -0.79375,0.31212 -0.7038,-0.68262 -2.23842,-1.54002 -2.423631,0.11627 -0.486831,0.72496 -0.0712,1.66438 -0.45217,1.80196 -1.672159,0.57679 1.201311,0.30956 1.958019,0.26458 -1.489598,0.44715 0.169,1.28573 0.58705,0.18242 0.5662,1.03452 -2.256859,0.56115 -2.272728,1.55598 1.426098,0.37042 0.83108,1.13752 -0.100262,0.93379 -0.187849,0.0291 -0.384008,1.08754 -1.17512,0.0398 -1.164169,0.35985 -2.88094,0.0765 -3.65352,1.06609 h 0.008 c -0.195789,1.82034 2.598251,0.80438 3.5481,1.16685 1.19063,0.69322 2.06625,-0.69566 3.158979,-0.60306 0.637651,0.84403 3.278151,0.0605 1.148263,0.71934 -1.243552,-0.64294 -2.224781,-0.32771 -3.190513,0.64595 -2.248958,-0.81227 -1.783519,1.52381 -0.299209,2.389 1.42875,0.30163 1.627089,0.34935 2.60605,1.09813 1.719789,0.1217 2.603792,-2.97138 3.93464,-3.34708 0.510652,-1.23032 1.63498,-1.23032 2.034501,-2.24897 0.0344,-0.4048 1.931461,-2.43174 1.521359,-1.48982 -0.812271,1.02393 -2.328518,2.72516 -0.0584,2.73575 1.661578,-0.94192 0.222578,0.635 -0.719341,0 -1.582208,0.0741 -1.362789,1.05322 -2.17506,1.71203 -0.672039,0.75406 -1.074309,2.57157 0.357082,1.72755 1.711859,-0.83873 0.41275,0.25154 -0.463021,0.58755 -1.00542,-0.96572 -1.75419,1.78331 -0.926039,0.46303 0.243419,0.43921 0.640249,1.02156 1.412838,0.87075 2.27806,0.33337 -0.94963,0.12672 -1.486739,0.12143 -0.76993,1.54253 -2.06397,2.6381 -2.018991,4.55633 0.13493,0.85459 0.860082,1.02095 0.0584,1.97609 -0.836088,1.86532 0.235662,0.73815 0.852141,-0.24081 0.46037,0.42863 -1.07987,1.8708 -0.11679,2.3735 -1.222369,-0.32279 -1.417939,1.55584 -2.214329,2.46601 -0.16669,1.86266 0.386019,-0.003 0.915188,-0.66147 1.203852,-1.80709 0.547733,0.56348 -0.552939,1.50276 -0.799039,1.4605 0.45281,1.33623 1.108972,0.28318 0.22225,0.36512 -1.897102,2.24612 -0.769972,3.31505 0.7567,1.28057 1.737939,-0.43393 2.46289,-1.32293 -0.0926,1.20387 -2.034599,2.286 -2.53731,3.70418 -0.500059,1.397 -1.005228,3.3156 -0.801499,5.07773 -0.386292,1.25412 -1.807059,2.1111 -1.34669,3.75945 1.325568,0.77523 4.532321,-0.32006 3.770321,-2.23036 -1.066282,-0.61382 -0.103053,-0.92079 0.148299,-1.89445 0.127,-0.98425 0.883531,-2.11398 0.60307,-2.73575 -0.54769,-1.55839 0.894519,-3.36568 2.085139,-4.22559 -0.875768,-1.90234 -1.833639,-3.35983 -1.738389,-5.5056 0.343961,0.59002 1.43923,-0.0214 1.746149,-0.9369 0.4445,-1.80445 2.807041,-1.94446 3.116601,-3.73569 0.259289,-0.0926 2.16694,-1.4845 1.78594,-0.71984 -1.661591,0.44978 -1.48659,2.20647 -2.925921,2.69595 -1.105958,0.97631 -2.447769,2.60096 -2.431899,4.07469 -0.34925,1.43933 0.431379,2.77269 1.891879,3.02669 -0.552979,-1.12712 -0.15096,-1.92069 0.116271,-3.05046 0.0741,0.46302 2.201479,2.33627 1.33894,0.26458 0.486831,-1.30175 0.227399,2.06096 1.108459,2.1668 0.939271,-0.44187 1.322922,-2.67462 1.124482,-3.1006 0.64294,-0.0794 0.550468,-2.19883 0.21445,-2.92642 0.145518,-2.23839 0.0952,1.62426 0.926039,-0.077 0.20638,0.19844 -1.18018,2.22519 -0.0822,3.08508 1.91294,0.55034 0.15871,-0.85725 0.0899,-1.71979 0.83344,0.70644 2.21233,2.84956 4.06177,2.91042 1.0795,0.51329 -1.78352,-0.0871 -2.415868,-0.0977 -2.013482,-1.6219 -2.934002,1.33331 -2.41277,3.05046 1.457849,1.19591 -1.281002,2.48175 0.634579,3.13262 0.30956,1.21709 2.69081,1.04529 2.38125,2.77037 0.0873,0.27782 1.20386,1.45771 0.39688,2.43138 -1.64307,0.20638 -1.613921,1.88152 -2.60346,2.78639 0.312208,2.1643 -1.664041,3.24092 -2.389,4.86017 -0.981612,1.57956 -0.343921,3.21186 0.439248,4.57182 -1.693338,0.80698 -0.436747,-2.79638 -2.108919,-2.17196 -1.561039,1.71714 0.608459,4.28889 1.76734,5.55625 1.182682,0.74083 0.0425,2.57431 1.77818,2.95795 0.330731,-0.29368 -0.0793,-1.52418 -0.55294,-2.2412 -0.862539,-1.29381 -0.537138,-2.46848 1.082112,-2.95796 0.73025,0.41804 1.804349,1.30473 2.80448,1.72806 0.997479,0.88635 1.65114,2.34917 3.257158,2.37298 0.820211,-0.49212 -0.246099,-2.07944 0.420651,-2.45515 -0.41275,-0.82285 -1.71427,-1.63516 -0.692981,-2.62206 0.280461,-0.0132 0.74083,1.70373 1.85208,1.46296 1.04511,-1.40229 0.32511,0.57452 1.050071,0.97669 1.060979,1.18533 1.145831,0.14268 1.57975,-0.91829 -0.42863,1.24618 0.701098,2.18545 1.743559,1.12447 1.48431,-0.61383 0.733081,-1.07927 1.249022,-1.94975 -0.0608,0.23284 0.55794,0.75119 1.513078,-0.10077 1.283242,0.23548 2.217322,-0.18525 1.82573,-1.62987 -0.388929,-1.41817 0.46567,-0.2989 0.79375,-0.84129 0.772592,-0.0529 1.80204,0.20122 2.8789,0.34675 1.076851,0.14552 2.021422,-0.0928 3.042711,-0.25684 0.38364,-0.0609 0.465439,-0.0979 0.428389,-0.13229 0.875782,0.0556 -1.46835,1.03698 -0.11368,0.8015 -0.20373,1.5293 -2.516,-0.83046 -3.248899,0.80202 0.759349,0.33338 0.2774,1.39157 -0.55604,0.71159 -0.582081,-0.16405 -1.65327,1.89177 -1.47071,2.84427 -1.719789,1.397 -1.524,3.69891 -2.447401,5.40019 0.42863,1.85473 3.217341,3.37887 2.910422,5.57227 0.3175,0.89957 1.814898,2.74883 2.166789,1.26452 0.39688,-2.46592 0.738299,1.02375 -0.0264,1.19838 -0.121701,0.92075 0.28013,1.43172 0.983919,1.99263 0.161401,0.21168 0.96058,-1.00541 1.33894,-1.78594 0.341309,-1.63247 0.643022,-0.12728 1.40767,0.0341 0.26987,-0.45244 2.240946,-1.62719 1.436606,-0.72762 1.09009,1.39966 0.20392,2.18841 -0.801505,3.20706 -0.0185,1.19062 1.010755,0.60045 0.637695,1.57148 0.44185,0.67203 -1.336195,0.69335 -2.225195,0.87591 -0.83344,1.94204 -0.72771,5.65911 2.341465,4.22506 -0.857256,0.74878 -2.841485,2.07453 -3.357425,3.89486 0.89164,1.48167 1.015859,3.6064 2.62981,4.58008 0.605905,1.25413 2.696225,-0.45012 2.024175,0.78548 -1.37318,2.10873 -3.373635,-0.86231 -3.564135,-2.41277 -2.794,-0.25664 -1.555851,2.93947 -1.164259,3.66179 0.291039,0.27252 0.283239,0.27252 0.280598,0.26459 -0.42333,-0.24342 -0.73002,-0.33319 -1.354439,-0.9338 -1.98438,-2.85221 -4.342,0.69809 -6.73913,0.0393 -0.65881,-0.45244 -2.987231,-1.71167 -1.672252,-0.14005 -0.981599,0.50536 -2.934038,1.55036 -4.373369,1.61386 -0.656169,0.62706 -1.62465,2.53764 -2.15646,2.34714 0,1.27794 -0.876041,2.52115 -2.061369,3.36517 -1.584859,0.83344 -2.965611,1.90236 -3.587379,3.63802 0.457729,0.40217 0.767148,-0.40723 1.439187,-0.22996 0.86519,-1.09802 1.526691,0.8755 2.092892,0.25373 -0.23812,-1.82033 2.21471,-2.614 3.91863,-2.49494 1.785929,0.50536 -0.0268,2.29938 1.206129,3.12488 0.240771,1.14829 1.312511,0.65356 1.38131,0.76997 -1.31763,0.66675 -2.442289,3.04811 -0.58756,3.9424 1.362602,-0.64294 1.37087,0.22758 0.0744,0.43925 -0.67469,0.41275 -0.49752,2.77525 -1.230421,3.86798 -0.783169,2.01613 -2.839059,2.59565 -4.251939,3.72277 -0.518581,1.19857 -2.725121,0.10844 -3.156392,1.08211 -0.590018,-0.0212 -0.891878,1.30189 -1.886709,1.47123 0.21431,1.30175 -1.16913,-0.005 -1.44694,0.88625 -0.354539,-0.082 -2.127441,-1.07671 -1.778191,0.34674 -0.489479,0.96309 -2.185368,1.09766 -2.82566,1.80145 -0.701148,1.55575 1.463252,0.0238 2.288752,1.1007 0.608539,1.3335 -0.0504,1.79909 -1.008211,2.2965 -1.121841,0.15082 0.227539,0.54527 0.39687,1.22525 -0.01061,-1.45521 1.857229,0.0371 2.894401,-0.55293 2.14842,-0.34661 -0.78817,0.72241 -1.224732,0.50281 -0.37306,0.16668 -1.677419,0.0104 -0.222208,0.57929 -0.005,0.83344 1.042419,1.4236 1.875859,1.07435 0.574141,-1.20385 2.00818,-0.40756 2.77812,-1.09812 -0.082,-1.95527 2.16146,-1.46315 3.579619,-1.71979 -0.605888,-1.29381 0.317363,0.0504 0.711592,-0.77773 -0.0476,0.44714 1.463328,1.55291 0.19069,1.06608 -0.402172,0.78581 1.32537,1.46862 2.19056,0.98444 0.513289,1.06891 2.28596,-0.49765 1.478978,0.69298 -1.203849,1.00806 -2.010608,-0.30934 -2.743499,0.82837 -0.13494,0.9816 0.581901,1.72475 1.529101,1.38079 0.66675,-0.65087 1.83129,-0.31191 2.630329,-0.36483 -1.087429,-1.09273 1.494531,-1.55083 1.867591,-1.04283 1.203859,0.62706 0.793789,3.07748 2.225191,2.82877 1.449919,2.11666 4.410889,2.37317 6.51433,1.43919 -0.21431,-1.47373 1.489419,-2.02675 2.388999,-3.08509 0.64294,0.61648 2.082286,0.0479 3.108866,-0.49454 0.0476,-0.10319 0.0845,-0.20414 0.11628,-0.29146 v 0.0584 c 1.44727,-0.72496 2.32602,-2.83082 4.04316,-3.40496 0.51594,-0.93398 1.07675,0.008 0.0925,0.24081 -1.58221,1.23031 -2.59802,3.30159 -3.71192,5.00021 -1.47637,0.0582 -2.431617,2.24673 -3.325906,2.54042 -0.0714,1.15358 -0.849601,0.95245 -0.627351,2.00814 0.58737,1.30969 -0.39121,2.12461 -1.735299,1.71979 -1.566331,0.7964 -3.394871,0.66392 -4.773351,-0.32297 -1.283229,0.17462 -2.717001,-0.36755 -4.090191,-0.0977 -1.502828,0.27781 -4.659497,-0.13767 -5.085479,1.17202 -1.124479,0.69056 0.759539,1.90225 -0.60306,2.80448 -0.899588,1.78329 -2.405441,0.14288 -3.622519,0.33073 -0.0132,0.69321 0.16944,1.41548 -0.22479,2.00814 -0.003,0.005 -0.005,0.005 -0.008,0.008 0.346599,1.89177 -0.587571,3.31523 -1.778191,4.49791 -1.457859,0.23019 -0.534418,2.53508 -2.40502,2.2996 -1.002768,-0.15081 -0.568708,0.43641 -1.04231,0.64544 -1.17475,-0.2831 -1.124479,1.43925 -1.455208,2.69338 -1.613961,-0.0662 -0.812231,1.46304 -2.008151,2.07687 -0.648231,1.24619 -2.291331,1.4288 -2.886641,2.55592 -1.060979,-0.83608 -2.10902,0.29125 -3.33934,0.74104 -0.439209,0.635 -0.695519,1.95771 -0.0579,2.43396 2.034651,0.82021 1.457629,-2.40782 3.074231,-1.56115 1.989669,0.13229 2.399998,1.87854 3.209628,3.175 0.296331,-0.23812 0.822481,-1.16417 1.536862,-1.19062 1.322908,-0.9525 -1.068552,-1.50771 0.0506,-1.9575 0.735541,-0.71437 0.0021,-1.13771 0.71933,-1.98437 0.12436,0 0.32294,1.26957 0.280609,1.42832 0.51593,-0.84666 1.036982,-1.08479 1.727542,-1.5875 1.30175,0.0794 1.296789,-0.88595 1.529619,-1.78025 0.21961,-1.16945 1.16685,-0.0372 1.497579,-0.32297 1.82563,0.47889 3.11136,-1.14844 4.94492,-0.47904 0.600612,1.32291 1.846791,-0.0157 0.595312,-0.31471 1.571628,-0.59531 1.49996,2.03218 3.140379,1.24902 1.264709,-0.53182 1.66456,1.939 2.720251,1.64795 1.08744,0.52917 1.912749,-0.0658 1.85983,-1.3596 0.89694,-0.55298 0.719669,-1.445 1.455208,-1.04283 1.029232,-1.15623 -0.185208,-0.9948 -0.264578,-2.14044 1.465789,-0.1217 -0.147981,-1.48677 1.050579,-2.32285 0.931341,-0.5424 -0.52137,-3.36797 0.513151,-1.72755 0.653518,2.00819 1.89729,-0.85743 3.077329,-0.85214 2.03994,0.29104 3.84398,-1.66692 5.793966,-0.30696 1.48432,1.02129 4.28923,2.01092 3.91088,3.98736 0.22489,-0.17198 0.20637,-0.53204 0.46302,-0.69608 -0.66675,-0.7964 -0.41815,-2.47085 1.21697,-1.80145 1.85473,-0.082 3.16434,1.00263 4.81004,0.77774 0.7038,-0.70909 0.49467,-1.1243 0.35709,-1.72755 -1.02129,0.0609 -1.06348,-0.58231 -1.63763,-0.29921 -0.65616,-0.23018 0.64298,-0.6615 1.29915,-0.57154 0.32279,1.53988 1.4896,-0.85441 2.71198,0.0584 0.127,-0.10848 0.25146,-0.77519 1.29656,-0.55294 1.32821,0.92869 1.71431,-0.14302 2.91817,-0.67749 2.00818,0.1032 1.72262,-1.6539 0.38912,-2.39209 -1.90764,-1.04246 0.59271,-0.243 1.10071,0.62218 0.84666,0.26194 2.12423,2.31737 2.66134,1.07384 -0.8255,-0.82285 -0.30953,-1.03717 0.63768,-0.7276 -1.12977,0.8255 0.44711,1.93697 0.4868,0.23306 1.19327,-1.12714 0.0374,1.34682 0.40514,1.03198 1.24883,0.60589 0.26194,-2.31243 0.99219,-0.94982 -0.10584,0.0662 1.46031,-0.0718 0.40462,0.67696 -0.76994,0.39423 2.24897,2.1539 1.85209,0.71986 0.51065,-0.41805 3.31267,-0.68017 4.71496,-0.98444 2.93159,-1.32556 5.78658,0.77012 8.54883,1.31517 1.05305,-1.98967 3.39707,-2.00805 5.36557,-2.69596 0.96044,-1.63513 2.50291,-1.2754 4.05866,-0.89969 -0.5371,-1.93146 1.33067,-3.52452 3.11661,-3.64887 1.52929,-0.32809 3.36048,-1.60859 2.5244,-3.55328 -1.03188,-1.43139 0.97627,-1.32012 0.68522,-2.7621 -0.44185,-0.19579 -0.98708,0.0319 -1.44745,0.0822 -2.45533,-0.22225 -4.71984,1.50287 -7.06934,0.57153 0.85461,0.24342 2.90252,-0.41842 0.96842,-1.30742 -0.93927,-0.51328 -1.95031,-0.33832 -1.99265,0.14056 -0.30691,0.0238 -0.34892,1.11093 -1.31464,0.58706 -1.5928,0.31485 -0.17213,-1.39437 0.84387,-0.99219 1.29117,-0.75671 -1.66139,-1.26183 -2.389,-1.02371 -0.32014,0.1561 -1.94741,1.31229 -1.27537,0.55294 0.46302,-1.41817 2.21158,-0.84932 3.03444,-1.52136 1.22502,0.25136 2.69118,0.13229 3.55637,-1.12449 1.24354,-0.95778 -0.4075,-0.56373 -0.63769,-0.45525 -1.43933,-0.9525 0.49184,0.10851 0.96015,-0.88367 0.91546,-1.37319 -0.2299,-2.6378 -1.48931,-1.48157 -0.48948,0.24606 -1.25674,0.30715 -1.28055,-0.36225 1.7145,0.38365 1.93926,-1.47145 3.48971,-1.50585 0.79905,1.44197 2.83078,0.51325 3.62717,-0.70383 0.86783,-1.4314 -0.27512,-0.0474 -0.88366,-0.73536 0.52652,-0.59531 1.93953,-1.74106 0.0822,-1.42886 -1.56104,0.20637 -1.06358,-0.66381 0.10852,-0.23253 1.64042,0.54239 -0.27517,-1.57178 0.8599,-0.54519 0.56885,2.11402 1.94718,-0.41536 2.43137,-1.41283 1.69333,-0.18786 2.18583,-2.15096 2.10117,-3.73053 0.33337,-2.05053 1.7566,-3.8684 1.81746,-5.87923 -0.2593,-2.70933 -0.44171,-5.9476 -3.35742,-7.30757 -1.57427,-1.98437 -4.10096,-2.00841 -6.26525,-2.81274 -1.36525,-0.36512 -0.12723,0.193 -0.49765,0.3147 -1.62718,-0.23282 -2.8601,-0.25631 -4.65397,-0.19016 -1.63778,-0.5715 -2.46086,1.13752 -2.68046,2.65359 -0.78317,0.71173 -0.57679,2.19056 -1.45521,0.8015 -1.90235,0.82814 -2.08204,-2.9102 -4.13256,-1.68517 0.22754,-0.889 1.63489,-2.09811 2.47891,-3.19878 1.5875,-0.9472 2.55853,-2.37849 1.85209,-4.25968 -0.84931,-2.58233 -1.51834,-5.28365 -4.0504,-6.26525 -0.82286,-1.47109 -2.34194,-1.54558 -3.35794,-3.00344 -0.34131,-1.78858 -1.79354,-0.99729 -3.03444,-0.99994 -0.93133,0.97897 -1.65629,-0.23563 -2.38125,-0.14831 -1.54516,0.78053 -0.96569,-0.46283 0.30696,-0.53691 1.524,1.397 3.88915,-1.1878 5.05861,0.45526 0.91281,1.32822 2.23335,1.98169 3.71502,1.41283 1.49489,-0.10319 0.5397,2.20399 1.14825,1.19063 0.0529,-2.05052 -2.05604,-3.62233 -2.94504,-5.4162 -1.34144,-1.72774 -2.97921,-5.5137 0.0661,-6.31539 -0.52387,-0.90222 -2.99783,-0.67997 -2.48719,-2.11665 -1.64835,-0.60855 -1.90481,-1.95801 -2.38899,-3.4582 -0.86784,-1.11654 -0.94215,-2.67229 -2.54817,-2.97656 -1.49225,-1.69068 -3.80193,-1.5875 -5.54024,-2.77812 -1.31498,-1.09273 -0.69056,0.98917 -1.71979,0.28008 0.55562,-0.76464 -0.1984,-1.38604 0.30696,-1.99987 -2.11667,-0.99219 -2.19855,-3.69623 -2.49753,-5.68855 -0.7276,-1.5875 -1.53212,-2.88141 -1.97662,-4.5377 0.30692,-1.33086 -1.053,-2.38409 -0.55294,-3.76257 -0.61383,-1.02922 -0.44185,-2.09795 -0.39687,-3.31504 -0.42598,-1.34143 -0.30413,-2.52435 -1.37304,-3.4742 -1.16682,-0.2593 -0.75667,0.0214 -1.14826,-0.89142 -0.3175,0.254 -1.06928,0.0421 -1.30741,-0.98444 -0.85989,-0.77787 -1.80692,-1.78598 -2.389,-2.8205 -0.045,-0.0794 -0.0741,-0.12421 -0.10852,-0.18242 -0.39952,-1.25148 -0.72738,-1.92612 -1.55288,-2.40502 -1.94469,0.48948 -3.3946,-2.47102 -5.09323,-1.79369 0.10584,-1.79123 -3.01132,-2.03497 -3.7548,-0.86816 0.0423,1.16152 -1.370367,1.89471 -2.521307,2.01641 -1.045099,-0.71966 -2.320578,-0.71999 -3.497969,-0.86816 -1.251479,-0.082 -2.767589,-0.66146 -4.209571,-0.66146 -1.997599,-0.35983 0.603631,-1.70633 1.505852,-0.56069 1.61925,1.28852 2.81223,-0.7276 4.53203,-0.46303 0.306908,-1.47107 1.810038,-2.57201 3.074749,-3.51657 1.613956,0.84402 3.367956,0.0374 4.505666,-1.33842 0.50271,-1.66423 -2.51879,-1.19629 -2.93419,-2.36575 -0.17462,-0.0847 0.86538,-2.14823 -0.66921,-2.05827 -1.505476,0.4101 -2.992435,1.56902 -4.564065,2.22519 -1.280581,0.39423 -1.783252,-0.24063 -0.22221,-0.24856 1.211799,-1.53459 3.00261,-2.36302 4.735635,-2.21486 0.89694,-0.66939 2.03204,0.45519 2.22519,-0.88625 1.05039,-0.87048 3.36021,-1.88119 2.71198,-3.37344 0.94721,-0.87048 0.84927,-1.40735 1.14825,-2.67735 1.05833,-0.72761 2.6591,-2.18565 3.08508,-3.89485 -0.57415,-1.9738 1.84429,-3.40232 1.53737,-5.1909 -0.66146,-2.84163 2.43667,-5.52458 3.35742,-7.22851 1.01335,-0.59266 -0.11896,-1.33378 0.56896,-1.55339 -0.87577,-0.67733 -0.50271,-2.2936 -0.99219,-2.836 -0.94985,-1.22766 -1.84958,-1.86564 -3.38946,-1.86035 -0.8546,0.81492 -1.9736,0.25154 -2.85202,0.25683 -1.48166,0.9578 -3.75429,-0.1457 -5.47408,-0.0584 -1.24354,-0.51858 -2.344175,-0.57154 -3.397217,0.28836 -2.423578,0.40217 -5.156909,-2.70408 -7.003708,-0.0424 -1.407581,0.26458 -2.82575,0.40519 -3.836461,1.70429 -0.748771,0.77257 -4.26489,-0.30702 -2.98431,0.8201 -0.76994,0.70115 -1.561039,2.28573 -2.77813,1.70894 1.23825,-0.78581 -0.87331,-1.56597 0.60307,-1.20612 0.391581,-0.61385 1.27775,-0.60892 1.396809,-1.43971 0.703792,-0.86519 1.83088,-2.39421 0.02379,-1.37821 -1.312329,-0.42598 -2.52408,0.0398 -3.5295,1.47123 -1.309679,1.61396 -1.060749,-0.11113 0.166921,-0.72761 0.436559,-1.56104 2.07958,-0.82058 3.00033,-1.90272 0.84138,-0.93663 1.574419,-0.49969 1.338939,0.64595 1.193271,-0.82814 2.116522,-2.42108 3.026691,-3.72018 0.338659,-1.68011 -0.547539,0.34387 -1.17461,0.37827 -1.383771,0.51064 -0.19608,-0.005 -1.024231,-0.39688 -0.973659,0.6059 -2.664018,0.48159 -3.23287,-0.55293 0.963081,0.34131 2.53981,0.26704 2.653581,-0.786 -0.26987,-1.08479 0.272711,-2.06882 1.57975,-2.47892 0.54769,-1.06098 1.584521,-1.73284 2.63756,-2.52129 1.695989,-1.05834 2.905281,-2.76252 4.050919,-4.37648 2.066401,-0.65617 3.593232,-2.03967 4.15944,-4.09019 1.113901,-1.29117 -0.29392,-0.762 -0.894519,-1.19063 -0.415401,-1.47108 1.45242,-2.51135 1.43919,-3.9057 -0.80169,-0.42863 -2.015939,0.077 -2.918171,-0.36225 -0.775237,0.62945 -1.542677,-0.39717 -1.934258,-0.37336 z M 40.64932,180.11954 c -0.640292,0.0503 0.526851,0.59532 0.735872,0.72761 -0.724958,0.11112 0.396544,1.02158 0.983922,1.48725 -0.955149,0.31485 -0.941919,-0.22773 -1.322919,-0.65371 -0.719667,0.91017 -1.989336,0.20117 -2.108399,1.01079 -1.129771,1.28588 0.92325,2.20677 0.513146,3.65404 0.8255,1.63248 -1.267354,1.71946 -1.984375,3.03444 -1.045104,-0.005 2.243439,-2.12442 0.09767,-1.59525 0.156104,-0.68792 2.338999,-1.67508 0.680061,-2.92127 -1.169458,-0.25664 0.08477,-2.9365 -1.21698,-2.26446 -0.396875,0.45508 -2.428832,1.03188 -1.148249,1.71979 0.470958,0.23284 0.558271,0.59535 0.463021,-0.61908 0.465666,0.47096 0.862769,1.59014 0.365352,2.77812 0.354542,-1.13506 -1.058333,-1.79656 -1.719791,-2.29133 0.619125,-1.32821 0.190087,-1.02404 -0.68833,-0.43666 0.423334,0.55562 0.915871,2.07179 -0.370004,1.95802 1.005417,-0.98161 -0.177683,-0.14553 0.03928,-0.92605 -0.738187,-0.0423 -0.446963,-1.08758 -1.330669,-1.07435 -0.161395,1.21179 -1.227812,1.44727 -2.000395,2.18281 0.169333,-0.63235 0.291187,-1.00273 -0.645438,-0.42064 -1.439336,-0.91811 -1.402477,1.16956 -1.579748,1.42885 0.642938,0.86783 -1.195689,0.53431 -1.02371,1.63763 -1.264711,0 0.190458,1.25143 0.222208,1.47897 -1.740961,-0.10583 -0.275209,1.88917 0.420645,1.03457 1.246185,0.51064 -0.296106,0.23812 -0.4284,0.92604 1.698625,0.60325 -0.407683,0.31731 -1.159102,0.27233 -1.66423,0.2593 -0.447104,0.77792 0.439253,1.49759 1.471083,0.97366 -2.441879,-0.70644 -0.759129,0.13229 1.611312,1.143 -1.815497,-0.69836 -2.450497,0.34675 -0.550333,0.78052 -1.801731,1.13771 -1.37046,1.85208 0.486834,1.12183 2.527144,1.83352 3.953248,1.0821 -0.381,1.08744 2.108462,-0.66156 0.981337,0.68782 -1.418169,1.23825 0.372957,0.28064 0.886251,-0.47077 1.2065,-1.50813 0.243708,1.16699 1.487247,-0.008 0.931336,-1.06098 2.254149,0.0869 1.150837,0.21394 -0.343958,0.21431 -1.49773,1.88133 -1.778188,2.92643 -0.976315,0.5424 -2.582376,0.0739 -2.555917,0.77774 -0.447146,1.10596 -1.441837,1.2675 -2.431378,1.73581 -0.650875,1.63777 1.204081,0.13475 2.085144,0.99994 -0.283104,0.3175 -1.547955,-0.20619 -0.280601,0.52141 2.016127,0.889 -2.386769,0.14821 -0.828374,1.03457 1.370542,0.97102 0.378355,1.39937 -0.529166,0.45216 -0.592667,-1.62718 -2.251647,-0.30948 -3.415813,-0.77514 -1.055688,-1.13507 -2.709291,-0.56592 -2.801896,0.95808 -0.264583,1.0504 -0.504983,1.25927 -1.338421,0.38085 -0.424917,-0.35454 0.243047,-1.49768 -0.381369,-1.53737 -0.234422,-0.0212 -1.247789,-1.74067 -1.917714,-0.56327 -1.692275,-0.61648 -3.666398,0.013 -5.5975916,-0.91829 -1.463146,0.3122 -0.536443,1.25699 0.01654,1.22524 0.776288,1.07686 -0.0682,0.0711 -0.818555,0.34624 -0.144991,0.8546 -0.700484,1.929 -1.504817,0.98443 0.330464,0.127 1.743009,-0.67751 0.256315,-0.85214 -0.566208,-1.22767 -0.844286,-0.57948 -1.653646,0.0899 -0.08625,0.22225 0.0058,0.63012 -0.363802,0.55603 1.035315,0.39423 -0.06469,1.45253 -0.248047,2.60346 0.287073,1.29117 0.973071,0.19825 0.686263,-0.12454 0.02805,-0.61119 0.05239,-1.30987 0.826823,-1.31516 -0.724958,-1.48167 1.396868,-0.19836 0.744141,0.21704 0.08652,0.11906 -0.04868,0.69358 0.396875,1.04283 0.201877,0.24342 -1.522016,0.83321 -0.214974,1.42058 0.604043,-0.22489 1.380529,-1.73827 1.149284,-0.88366 0.07117,0.73025 -1.222111,1.40494 -0.231511,2.18281 0.592402,0.62971 0.392973,1.09783 1.000456,1.13223 0.237067,1.45521 -0.04994,0.36777 -0.785482,0 -0.953294,-0.52123 -1.653844,2.61934 -0.223242,1.942 1.198562,-0.65087 3.1009816,-0.96573 3.9770176,-0.46302 0.157692,0.65352 -0.426177,0.89712 -0.553971,1.38131 1.177395,0.47361 0.462359,1.31517 -0.975651,0.98444 -1.4843126,0.0344 -3.6189706,0.20869 -2.9765626,2.24069 0.907786,1.51341 -0.180313,1.92097 -1.703255,1.62729 0.39661,0.75141 0.440201,1.02908 -0.768945,0.77773 0.3429,0.41804 -2.316097,0.4341 -0.686263,0.58756 0.135731,0.76994 1.29659,1.46035 1.107942,2.10065 -0.699029,-0.41275 -2.123479,0.84941 -0.851627,0.76739 0.841375,-0.51065 1.269206,0.54225 2.149739,0.84388 0.574411,-0.20902 1.565672,-2.00554 1.240235,-0.52917 0.887148,-0.57679 0.721254,-0.38879 1.091406,-0.0501 0.03122,0.71438 -1.709473,0.55582 -1.455208,1.57975 0.451643,0.10319 1.306049,0.60329 2.025716,0.5054 0.2667,-0.635 1.9761726,-2.6405 1.3559886,-0.81752 -0.189441,0.9816 1.111647,-1.28615 0.909505,0.31987 -0.56515,0.0741 -0.785614,1.8493 -0.272851,1.96836 0.541337,-0.61383 0.543189,-1.3414 0.628386,-0.0238 2.284677,0.38895 5.005959,-0.11074 7.252271,-0.67695 2.066395,-0.15876 -0.91267,0.9734 0.479038,1.31207 1.550459,-0.50271 -0.134895,0.41263 0.439251,1.34927 -0.129646,0.27252 -0.963496,-1.05569 -1.878954,-0.33073 1.693333,0.27781 0.542623,0.39419 -0.494544,0.15607 0.489479,0.42597 -0.833347,0.99506 -1.74563,0.10076 -0.794015,0.26194 -1.133872,1.68275 -1.736329,2.4474 0.01932,0.76994 -1.968102,2.38117 -0.744139,2.23035 2.154237,-0.31222 -0.223375,1.11653 -0.173634,1.91822 -0.558271,0.7091 -0.432859,2.7092 -1.81901,2.1668 -1.201209,1.40494 -2.6423276,3.13286 -4.6219396,3.961 0.858837,0.18257 2.9179576,-0.0289 3.1584636,-0.93379 1.138501,-0.0661 1.75842,-0.59267 1.819009,-1.32292 0.341313,1.4949 2.508383,1.35199 3.720704,0.68524 -0.778668,0.46566 -0.792162,1.54502 0.198438,0.57929 1.449387,-0.0767 2.676963,-1.47619 2.936255,-2.78588 0.738187,-1.53458 1.754145,0.40448 1.015957,1.18236 0.777875,-0.51859 3.857625,0.13504 2.050521,0.56895 -1.246187,-1.0107 -2.436667,0.99771 -3.291271,0.76223 -1.164166,0.008 -3.210532,1.55027 -4.538742,0.9338 -1.010179,0.60589 -2.534708,-0.31765 -3.472656,0.447 -1.0316096,0.75935 1.083799,2.06408 -0.256315,1.59576 -1.0054156,0.6403 -2.1578746,1.25946 -3.3982416,1.3653 0.103452,0.7911 2.067322,0.46562 1.372526,2.00814 -1.277408,1.07421 -0.179586,1.0634 1.066602,1.156 0.28231,1.23561 -1.172766,-0.19333 -1.438672,0.73536 -1.784086,0.75142 -1.894152,-1.36525 -2.38125,-1.5875 0.365919,0.51329 -0.399389,1.72271 -1.471745,1.59835 0.420687,-1.32821 -1.162844,-1.33104 -1.951302,-0.1907 -1.295929,-0.0423 -0.409906,1.64583 -1.331185,1.42887 -0.49371203,-1.24619 -1.42120903,1.25421 -0.51263003,1.7384 1.35413703,-0.18521 0.79394803,-0.86505 2.14147103,-0.31472 -0.401637,-0.54239 0.03486,-0.49477 0.686263,-0.26458 0.670454,0.80433 2.898246,-1.20381 3.571875,0.17467 -0.223573,-0.56356 0.812866,-1.28331 1.595768,-0.48163 1.8134536,-0.254 -0.483658,0.99738 -0.826823,0.15865 -0.232833,0.55563 -0.562768,2.2355 -0.826822,0.89142 -0.193146,1.19062 -2.129301,1.01618 -3.133659,1.71204 -0.454025,0.2196 -1.44661,0.85196 -1.174089,1.19062 1.798109,1.35732 -1.72746403,0.90999 -1.256771,1.99213 0.515938,0.21167 0.684147,0.74385 0.620118,1.50585 0.803804,-0.53975 2.147226,-2.64852 2.067057,-0.24081 -1.389592,0.63235 0.931135,0.33875 0.636653,1.20923 0.998803,-0.57415 2.608197,-1.57465 3.431316,-1.50585 0.595047,-0.0265 2.1261906,-1.32259 3.7041666,-1.3808 -0.239978,0.70908 -2.3287306,0.65084 -2.7615886,1.80971 0.347927,0.75936 -0.641152,0.15067 -1.033529,0.91002 -0.157956,-0.24077 -0.818621,-0.13781 -1.488281,0.49455 0.876829,0.35718 -0.187391,1.31506 -1.231966,1.07693 -0.04048,0.3175 0.71497,1.2305 -0.65319,1.18288 -0.747713,0.87577 0.208491,0.25646 1.02526,0.33848 1.453092,-0.0106 2.008518,-1.50552 3.745508,-1.29915 1.3250326,-0.25135 3.0862986,-0.79375 3.0013676,-1.98437 0.101334,1.32821 1.57632,0.20108 1.182356,1.19062 -0.945092,1.12713 -3.136106,1.355 -4.2994786,2.45567 -1.035844,0.86518 -0.606624,1.02885 0.471289,0.34623 0.5254616,-0.1614 3.0872906,-1.55571 2.1993476,-0.81752 -0.680244,1.47108 -3.4140496,1.77796 -3.1584626,3.06648 0.313267,0.18256 1.3129936,0.15879 1.4717436,-0.48679 0.666486,-1.45521 0.999332,0.30956 1.653646,-0.52917 0.406929,-0.46302 1.847123,-0.22475 1.827279,-1.10846 0.934508,0.46566 -0.02593,1.38914 0.926043,1.87069 1.076853,-0.54505 1.222734,-0.7278 1.969389,-0.32298 0.19579,-1.08215 1.076811,-0.42069 1.412831,-1.38907 -0.65352,-0.86254 1.164024,0.20101 1.571482,-0.41547 0.685271,1.10331 1.015731,0.65356 1.708939,-0.15607 0.748771,-0.78052 1.397,0.33115 2.248958,0.093 -0.420687,-1.21444 1.278311,-2.09568 1.902727,-0.85214 0.02117,-0.0529 0.391253,-1.62738 0.256316,-1.91048 0.73025,0.92604 1.156375,-0.082 2.198833,-0.26459 0.8255,-0.58208 1.333397,-1.78054 0.555522,-2.67218 0.177271,-1.01336 -1.561042,0.10848 -0.992187,-0.8599 0.732895,0.73819 3.098231,-0.4711 2.735752,0.51315 -2.219855,1.37319 -0.04475,1.72508 0.894519,1.05833 1.656291,0.28046 0.854604,-1.07689 2.182812,-1.29914 1.653646,0.23548 0.01863,-0.8334 0.767395,-0.81752 0.0926,-1.93146 2.044899,0.17722 2.306836,-1.29915 1.307042,-0.0767 1.709579,-0.82267 2.2996,-1.6614 -0.796396,0.11906 -1.288892,-1.43381 -0.182933,-0.62683 1.232958,-1.53988 3.667458,-0.81496 5.167638,-1.36529 0.828151,-0.11377 0.380711,-0.57981 1.09244,-0.44752 -0.851958,0.92604 0.91281,1.00012 1.32292,0.13229 0.30956,-0.53975 0.0558,-1.47108 -0.23254,-2.51354 0.264581,0.30427 1.415521,1.62208 1.19062,2.57193 -1.19592,1.41288 0.63732,-0.17718 1.05007,-0.51056 0.0582,-0.94721 -0.224488,-0.88398 0.820621,-1.6645 -0.338669,0.98425 -0.64335,1.26777 0.700731,0.95292 1.22238,0.51064 2.16717,1.21671 3.209618,0.14779 -0.402159,0.79375 1.190442,-0.25135 0.933791,0.39688 0.478901,0.78846 1.6563,-1.5875 0.264589,-1.78594 -0.15611,-0.29369 -0.105839,-0.58701 0,-0.8754 -0.21431,0.32808 -1.06598,0.28825 -0.82786,-0.74362 0.81757,-0.38365 1.179711,0.42862 1.05007,-1.05834 0.97631,-1.71185 2.775522,-3.27823 1.828311,-5.40019 0.83608,-1.34143 0.886269,-2.74085 1.502751,-4.13256 0.481539,-0.74877 1.979168,-2.46067 0.944639,-3.08508 -0.105831,-1.69599 0.145669,-3.51627 -0.84387,-4.98471 0.431271,-1.63248 -0.915641,-1.68812 -1.57975,-2.92902 0.34925,-1.32556 1.820709,-0.2037 2.233459,-0.75139 -0.037,-0.19313 -0.28579,-0.1909 -0.439248,-0.2253 -1.423461,-0.55298 -0.10867,-2.30712 0.0739,-3.46335 -0.687919,-1.19592 -2.365478,-1.91029 -2.288749,-3.77031 0.423331,-1.36261 -0.0953,-1.70917 0.0661,-2.93419 -1.15094,-0.15081 -2.30423,-1.39436 -1.62161,-2.84427 0.185208,-1.82564 2.084779,0.79918 3.22513,-0.31471 0.30162,-0.79905 -1.997461,-1.57167 -1.63763,-2.02675 0.045,-0.0556 0.129648,-0.11108 0.264588,-0.15606 0.36512,0.6641 2.442181,0.50814 1.539952,1.20664 1.187979,0.43656 2.917899,-1.05579 3.105759,-2.3549 -0.0926,-1.27793 0.206451,-2.45783 1.80454,-2.29908 1.32556,0.78316 1.862809,-0.14839 2.595711,-1.35754 0.275158,-1.56634 -0.875631,-1.97635 -2.034501,-0.90744 -0.0662,-0.22225 1.58191,-2.08779 0.62941,-2.68046 -0.13493,-0.83873 -0.38902,-1.03683 -0.746199,-1.64537 0.0132,-1.60338 2.034719,0.3965 2.069118,1.20612 0.02119,1.26736 -0.66911,2.26491 0.296622,3.39205 0.61119,0.0238 0.822899,-1.15325 0.769979,-1.84383 0.830789,-1.1033 -0.0663,-1.69351 -0.148309,-2.83651 -0.537102,-0.97896 -0.57136,-3.47667 -2.166792,-2.88665 -1.37319,-0.25664 -2.709479,0.47652 -3.455599,1.59836 -0.846669,-1.88119 1.80975,-2.41063 2.77812,-3.38429 1.016,-1.11919 -1.73056,-3.38659 -0.98444,-1.63504 0.915461,1.08743 0.6985,0.73564 -0.33073,0.30437 -0.330729,-1.22767 -0.968041,-2.64602 -1.976101,-3.63027 -1.254128,0.0661 0.560541,-2.68827 -1.373558,-1.82573 0.423328,-1.57956 0.02151,-4.78904 -2.39676,-3.52433 -0.738182,-0.41275 -1.892181,-0.80698 -2.871142,-0.79375 -0.441849,0.008 -0.8489,0.0983 -1.163748,0.31523 -1.481672,0.51329 -2.709672,1.46318 -4.440042,1.36529 -1.53988,-1.20386 -1.0346,0.44171 -1.672249,1.50533 -0.1905,1.82563 -1.78064,1.19063 -3.042711,1.19063 -0.045,-0.0661 -0.0816,-0.1374 -0.10542,-0.20619 -0.359828,-1.04246 1.798941,-2.55596 2.941941,-3.12746 2.07698,-0.46302 0.349481,-1.74371 -0.626829,-1.62729 -1.452571,-0.78581 -2.12457,-2.5005 -4.124817,-2.43965 -0.06085,-0.003 -0.116827,-0.005 -0.159163,0 z"
       inkscape:connector-curvature="0" />
  </g>
</svg>
